<!--?xml version="1.0" encoding="utf-8"?-->
<!-- Svg Vector Icons : http://www.onlinewebfonts.com/icon -->

<svg version="1.1" xmlns="http://www.w3.org/2000/svg" xmlns:xlink="http://www.w3.org/1999/xlink" x="0px" y="0px" viewBox="0 0 256 256" enable-background="new 0 0 256 256" xml:space="preserve">
<metadata> Svg Vector Icons : http://www.onlinewebfonts.com/icon </metadata>
<g><g><path fill="#ffffff" data-title="Layer 0" xs="0" d="M166.2,246H34.3V10h187.4v180.5L166.2,246L166.2,246z M207.8,23.9H48.2v208.2h97.2v-55.5l0.1-7l6.8,0h55.5L207.8,23.9L207.8,23.9z M207.8,183.5h-48.6v48.6L207.8,183.5z M75.9,93.3H187v13.9H75.9V93.3z M75.9,65.5H187v13.9H75.9V65.5z M124.5,141.9H75.9V128h48.6V141.9L124.5,141.9z M124.5,169.6H75.9v-13.9h48.6V169.6L124.5,169.6z"/></g></g>
</svg>